<svg width="13" height="12" viewBox="0 0 13 12" fill="none" xmlns="http://www.w3.org/2000/svg">
<path fill-rule="evenodd" clip-rule="evenodd" d="M11.1845 0.958139C11.3229 0.874774 11.4882 0.848255 11.6458 0.884145C11.8033 0.920035 11.9409 1.01555 12.0295 1.15064L12.6483 2.09439C12.7291 2.21773 12.7637 2.36569 12.746 2.51209C12.7282 2.65849 12.6593 2.7939 12.5514 2.89439L12.5495 2.89689L12.5408 2.90501L12.5051 2.93814L12.3645 3.07251C11.5864 3.82726 10.8318 4.60597 10.102 5.40751C8.72888 6.91751 7.09825 8.89376 6.00075 10.8113C5.6945 11.3463 4.94638 11.4613 4.50263 10.9994L0.449504 6.78814C0.39142 6.72777 0.346066 6.65633 0.316139 6.57808C0.286212 6.49983 0.272323 6.41636 0.275296 6.33264C0.27827 6.24891 0.298046 6.16664 0.333448 6.09071C0.368851 6.01478 0.419158 5.94674 0.481379 5.89064L1.70638 4.78564C1.81403 4.68858 1.95207 4.63196 2.09686 4.62546C2.24166 4.61896 2.38422 4.66299 2.50013 4.75001L4.56825 6.30064C7.79825 3.11501 9.63075 1.89251 11.1845 0.958139ZM11.3158 2.34314C9.8845 3.23814 8.09825 4.53626 5.067 7.56689C4.96063 7.67326 4.81947 7.7377 4.66941 7.74838C4.51936 7.75906 4.37049 7.71526 4.25013 7.62501L2.16138 6.05876L1.79825 6.38626L5.12138 9.84001C6.27513 7.92126 7.86325 6.01126 9.17763 4.56626C9.86977 3.80592 10.5836 3.06561 11.3183 2.34626L11.3158 2.34314Z" fill="white"/>
</svg>
