<svg width="15" height="15" viewBox="0 0 15 15" fill="none" xmlns="http://www.w3.org/2000/svg">
<path d="M10.2235 2.27845C10.3981 2.09819 10.6069 1.95449 10.8377 1.85571C11.0684 1.75692 11.3165 1.70504 11.5675 1.70306C11.8185 1.70109 12.0674 1.74907 12.2996 1.84421C12.5319 1.93935 12.7429 2.07975 12.9204 2.25724C13.0979 2.43472 13.2383 2.64574 13.3334 2.87802C13.4286 3.11029 13.4766 3.35916 13.4746 3.61016C13.4726 3.86115 13.4207 4.10925 13.3219 4.33999C13.2232 4.57074 13.0795 4.77952 12.8992 4.9542L12.1581 5.69532L9.48233 3.01957L10.2235 2.27845ZM8.9722 3.5297L3.10721 9.39469C2.89546 9.60644 2.74146 9.8692 2.66061 10.158L1.91612 12.8169C1.89892 12.8785 1.89841 12.9436 1.91465 13.0055C1.93089 13.0674 1.9633 13.1239 2.00855 13.1691C2.0538 13.2144 2.11026 13.2468 2.17216 13.263C2.23405 13.2792 2.29916 13.2787 2.36079 13.2615L5.01922 12.517C5.30794 12.4363 5.57097 12.2824 5.78296 12.0704L11.6484 6.20593L8.97269 3.53018L8.9722 3.5297Z" fill="white"/>
</svg>
